<?xml version="1.0" standalone="no"?>
<!DOCTYPE svg PUBLIC "-//W3C//DTD SVG 20010904//EN"
 "http://www.w3.org/TR/2001/REC-SVG-20010904/DTD/svg10.dtd">
<svg version="1.0" xmlns="http://www.w3.org/2000/svg"
 width="700.000000pt" height="700.000000pt" viewBox="0 0 700.000000 700.000000"
 preserveAspectRatio="xMidYMid meet">
<metadata>
Created by potrace 1.11, written by Peter Selinger 2001-2013
</metadata>
<g transform="translate(0.000000,700.000000) scale(0.100000,-0.100000)"
fill="#000000" stroke="none">
<path d="M2545 5844 c-16 -2 -66 -9 -110 -15 -296 -38 -678 -185 -942 -362
-479 -321 -806 -767 -968 -1323 -69 -234 -102 -607 -77 -855 33 -323 143 -671
294 -936 233 -409 587 -740 1013 -948 336 -165 651 -238 1025 -238 374 0 689
73 1025 238 255 124 508 310 683 501 l72 79 -22 20 c-13 11 -411 352 -886 758
-474 406 -862 742 -862 747 0 4 398 349 885 765 l885 757 -61 67 c-339 371
-799 624 -1319 723 -84 16 -156 20 -355 23 -137 2 -263 1 -280 -1z"/>
<path d="M3260 3811 c-87 -27 -165 -94 -202 -176 -17 -38 -23 -68 -23 -125 0
-57 6 -87 23 -125 91 -198 349 -247 502 -95 194 195 54 533 -218 529 -31 0
-68 -4 -82 -8z"/>
<path d="M4774 3800 c-72 -29 -128 -80 -163 -152 -27 -52 -31 -72 -31 -138 0
-66 4 -86 31 -138 115 -231 444 -227 555 6 56 117 27 271 -66 356 -64 57 -115
79 -200 83 -58 2 -87 -1 -126 -17z"/>
<path d="M6329 3805 c-60 -19 -142 -93 -177 -159 -23 -44 -27 -63 -27 -136 0
-73 4 -92 27 -136 38 -72 117 -140 186 -160 149 -44 306 25 374 164 33 67 33
197 0 264 -30 60 -90 121 -149 149 -59 28 -169 35 -234 14z"/>
</g>
</svg>
